<svg width="217" height="122" viewBox="0 0 217 122" fill="none" xmlns="http://www.w3.org/2000/svg">
<path d="M39.7404 12.416C39.7404 15.76 42.2844 18.096 45.4204 18.096C47.7404 18.096 49.7404 16.944 50.5884 14.768H48.3964C47.8044 15.952 46.7484 16.512 45.4204 16.512C43.2124 16.512 41.6124 14.928 41.6124 12.416C41.6124 9.904 43.2124 8.336 45.4204 8.336C46.7484 8.336 47.8044 8.896 48.3964 10.08H50.5884C49.7404 7.904 47.7404 6.736 45.4204 6.736C42.2844 6.736 39.7404 9.088 39.7404 12.416ZM53.7234 18H55.5474V13.072C55.5474 11.456 56.4274 10.624 57.7714 10.624C59.0994 10.624 59.9794 11.456 59.9794 13.072V18H61.7874V12.8C61.7874 10.336 60.2514 9.04 58.2834 9.04C57.1474 9.04 56.1554 9.472 55.5474 10.208V6.16H53.7234V18ZM64.5061 13.552C64.5061 16.272 66.3461 18.144 68.6341 18.144C70.1061 18.144 71.1621 17.44 71.7221 16.688V18H73.5621V9.184H71.7221V10.464C71.1781 9.744 70.1541 9.04 68.6661 9.04C66.3461 9.04 64.5061 10.832 64.5061 13.552ZM71.7221 13.584C71.7221 15.488 70.4261 16.56 69.0501 16.56C67.6901 16.56 66.3781 15.456 66.3781 13.552C66.3781 11.648 67.6901 10.624 69.0501 10.624C70.4261 10.624 71.7221 11.696 71.7221 13.584ZM78.7818 13.36C78.7818 11.488 79.6138 10.928 80.9578 10.928H81.4218V9.04C80.1738 9.04 79.2938 9.584 78.7818 10.464V9.184H76.9578V18H78.7818V13.36ZM83.4904 13.552C83.4904 16.272 85.3304 18.144 87.6504 18.144C89.0904 18.144 90.1464 17.424 90.7064 16.672V18.144C90.7064 19.904 89.6504 20.768 88.2424 20.768C86.9784 20.768 86.0024 20.144 85.7304 19.232H83.9224C84.1464 21.184 85.8904 22.352 88.2424 22.352C90.9944 22.352 92.5464 20.544 92.5464 18.144V9.184H90.7064V10.464C90.1624 9.712 89.0904 9.04 87.6504 9.04C85.3304 9.04 83.4904 10.832 83.4904 13.552ZM90.7064 13.584C90.7064 15.488 89.4104 16.56 88.0344 16.56C86.6744 16.56 85.3624 15.456 85.3624 13.552C85.3624 11.648 86.6744 10.624 88.0344 10.624C89.4104 10.624 90.7064 11.696 90.7064 13.584ZM99.6542 10.576C101.014 10.576 102.086 11.44 102.118 12.8H97.2382C97.4302 11.408 98.4222 10.576 99.6542 10.576ZM103.782 15.376H101.814C101.478 16.064 100.854 16.608 99.7342 16.608C98.3902 16.608 97.3502 15.728 97.2222 14.272H103.958C104.006 13.968 104.022 13.68 104.022 13.376C104.022 10.784 102.246 9.04 99.7342 9.04C97.1262 9.04 95.3342 10.816 95.3342 13.584C95.3342 16.352 97.2062 18.144 99.7342 18.144C101.894 18.144 103.286 16.912 103.782 15.376ZM114.709 13.968V18H116.533V13.968L120.213 6.88H118.197L115.621 12.336L113.045 6.88H111.013L114.709 13.968ZM131.061 13.584C131.061 10.816 129.077 9.04 126.565 9.04C124.053 9.04 122.069 10.816 122.069 13.584C122.069 16.352 123.973 18.144 126.485 18.144C129.013 18.144 131.061 16.352 131.061 13.584ZM123.925 13.584C123.925 11.584 125.157 10.624 126.533 10.624C127.893 10.624 129.189 11.584 129.189 13.584C129.189 15.584 127.845 16.56 126.485 16.56C125.109 16.56 123.925 15.584 123.925 13.584ZM141.848 9.184H140.024V14.096C140.024 15.712 139.144 16.544 137.8 16.544C136.472 16.544 135.592 15.712 135.592 14.096V9.184H133.784V14.368C133.784 16.832 135.352 18.128 137.416 18.128C138.456 18.128 139.448 17.696 140.024 16.944V18H141.848V9.184ZM147.079 13.36C147.079 11.488 147.911 10.928 149.255 10.928H149.719V9.04C148.471 9.04 147.591 9.584 147.079 10.464V9.184H145.255V18H147.079V13.36ZM163.696 6.864H157.552V18H163.696V16.512H159.376V13.104H163.216V11.616H159.376V8.352H163.696V6.864ZM171.294 16.128L167.998 6.88H166.046L170.238 18H172.35L176.526 6.88H174.606L171.294 16.128Z" fill="#2E2E2D"/>
<path d="M51.847 62H59.087L48.927 33.92H41.007L30.847 62H38.007L39.687 57.04H50.167L51.847 62ZM48.407 51.76H41.487L44.927 41.48L48.407 51.76ZM64.2592 54.24C64.2592 60.04 67.4992 62 72.1392 62H75.6192V56.2H73.1792C71.6592 56.2 71.0992 55.64 71.0992 54.32V45.36H75.5792V39.68H71.0992V34.24H64.2592V39.68H61.5392V45.36H64.2592V54.24ZM97.4258 52.72V62H104.266V52.72L113.986 33.92H106.306L100.906 45.68L95.4658 33.92H87.7058L97.4258 52.72ZM139.582 50.84C139.582 43.76 134.542 39.36 127.982 39.36C121.462 39.36 116.382 43.76 116.382 50.84C116.382 57.92 121.342 62.32 127.902 62.32C134.462 62.32 139.582 57.92 139.582 50.84ZM123.342 50.84C123.342 47.04 125.502 45.28 127.982 45.28C130.382 45.28 132.622 47.04 132.622 50.84C132.622 54.6 130.342 56.4 127.902 56.4C125.422 56.4 123.342 54.6 123.342 50.84ZM166.25 39.68H159.41V51.8C159.41 54.84 157.73 56.52 155.09 56.52C152.53 56.52 150.81 54.84 150.81 51.8V39.68H144.01V52.72C144.01 58.68 147.49 62.24 152.65 62.24C155.65 62.24 158.05 60.88 159.41 58.96V62H166.25V39.68ZM179.004 51.64C179.004 47.8 180.884 46.68 184.124 46.68H186.004V39.44C183.004 39.44 180.564 41.04 179.004 43.4V39.68H172.164V62H179.004V51.64Z" fill="#2E2E2D"/>
<path d="M2.96438 106H9.80438V94.64H18.3644V89.32H9.80438V83.4H21.2444V77.92H2.96438V106ZM25.8394 106H32.6794V83.68H25.8394V106ZM29.2794 81.36C31.6794 81.36 33.3194 79.72 33.3194 77.68C33.3194 75.6 31.6794 73.96 29.2794 73.96C26.8394 73.96 25.1994 75.6 25.1994 77.68C25.1994 79.72 26.8394 81.36 29.2794 81.36ZM54.0363 106H60.8363V92.96C60.8363 86.96 57.3963 83.44 52.2363 83.44C49.2363 83.44 46.8363 84.76 45.4763 86.64V83.68H38.6363V106H45.4763V93.88C45.4763 90.84 47.1563 89.16 49.7563 89.16C52.3563 89.16 54.0363 90.84 54.0363 93.88V106ZM65.2294 94.8C65.2294 101.84 69.5894 106.32 75.0694 106.32C78.3494 106.32 80.7094 104.76 81.9494 102.8V105.96C81.9494 109.72 79.9094 111.08 77.3094 111.08C74.9494 111.08 73.2694 110 72.8294 108.32H66.0694C66.6694 113.64 70.9894 117 77.6294 117C85.3494 117 88.7894 111.92 88.7894 105.96V83.68H81.9494V86.84C80.7494 84.84 78.3494 83.36 75.0694 83.36C69.5894 83.36 65.2294 87.76 65.2294 94.8ZM81.9494 94.84C81.9494 98.4 79.6694 100.36 77.0694 100.36C74.5094 100.36 72.1894 98.36 72.1894 94.8C72.1894 91.24 74.5094 89.32 77.0694 89.32C79.6694 89.32 81.9494 91.28 81.9494 94.84ZM104.578 88.84C106.858 88.84 108.778 90.24 108.778 92.68H100.218C100.618 90.2 102.338 88.84 104.578 88.84ZM115.258 98.6H107.978C107.418 99.8 106.338 100.76 104.418 100.76C102.218 100.76 100.418 99.4 100.178 96.48H115.658C115.738 95.8 115.778 95.12 115.778 94.48C115.778 87.68 111.178 83.36 104.658 83.36C98.0178 83.36 93.3778 87.76 93.3778 94.84C93.3778 101.92 98.0978 106.32 104.658 106.32C110.218 106.32 114.178 102.96 115.258 98.6ZM127.226 95.64C127.226 91.8 129.106 90.68 132.346 90.68H134.226V83.44C131.226 83.44 128.786 85.04 127.226 87.4V83.68H120.386V106H127.226V95.64ZM139.576 98.24C139.576 104.04 142.816 106 147.456 106H150.936V100.2H148.496C146.976 100.2 146.416 99.64 146.416 98.32V89.36H150.896V83.68H146.416V78.24H139.576V83.68H136.856V89.36H139.576V98.24ZM155.746 106H162.586V83.68H155.746V106ZM159.186 81.36C161.586 81.36 163.226 79.72 163.226 77.68C163.226 75.6 161.586 73.96 159.186 73.96C156.746 73.96 155.106 75.6 155.106 77.68C155.106 79.72 156.746 81.36 159.186 81.36ZM175.383 86.84V83.68H168.543V116.64H175.383V102.88C176.622 104.76 178.983 106.32 182.263 106.32C187.743 106.32 192.103 101.84 192.103 94.8C192.103 87.76 187.743 83.36 182.263 83.36C178.983 83.36 176.622 84.88 175.383 86.84ZM185.143 94.8C185.143 98.36 182.823 100.36 180.223 100.36C177.663 100.36 175.343 98.4 175.343 94.84C175.343 91.28 177.663 89.32 180.223 89.32C182.823 89.32 185.143 91.24 185.143 94.8ZM214.811 99.52C214.691 91.2 202.611 93.72 202.611 90.16C202.611 89.08 203.491 88.44 205.091 88.44C207.011 88.44 208.171 89.44 208.371 90.96H214.691C214.251 86.56 211.051 83.36 205.291 83.36C199.451 83.36 196.211 86.48 196.211 90.28C196.211 98.48 208.371 95.88 208.371 99.48C208.371 100.48 207.451 101.28 205.691 101.28C203.811 101.28 202.411 100.24 202.251 98.68H195.491C195.811 103 199.811 106.32 205.771 106.32C211.371 106.32 214.811 103.4 214.811 99.52Z" fill="#E6740C"/>
</svg>
