<svg width="185" height="167" viewBox="0 0 185 167" fill="none" xmlns="http://www.w3.org/2000/svg">
<path d="M144.296 5.61551C144.296 5.61551 136.654 -0.262329 131.437 1.2482C126.22 2.75872 117.122 5.99618 115.501 10.3821C113.88 14.7679 109.07 50.5199 111.196 68.1899C113.322 85.8598 117.338 110.947 125.535 115.245C133.732 119.542 146.168 114.081 147.583 109.134C148.999 104.187 146.159 65.9802 146.047 57.4262C145.935 48.8723 147.261 19.6452 146.047 15.1758C145.247 12.0326 144.661 8.8384 144.296 5.61551Z" fill="#2E2E2D" stroke="#666766"/>
<path d="M147.978 13.9816L163.067 16.332V94.6373H147.978V13.9816Z" fill="#2E2E2D" stroke="#666766"/>
<path d="M155.522 72.9214L153.439 76.106L153.766 79.3063C153.766 79.3063 151.885 79.362 151.916 82.131C151.947 84.8999 151.78 88.1924 153.439 89.4365C155.098 90.6806 157.556 91.5077 159.724 92.3261C161.891 93.1446 164.295 91.6234 166.784 92.7846C169.274 93.9459 174.046 98.3254 175.11 100.554C176.174 102.782 175.078 103.033 177.226 104.782C179.374 106.532 180.787 107.828 181.882 106.404C182.977 104.98 184.56 102.208 183.801 99.968C183.042 97.7276 179.961 92.024 177.226 89.4343C174.491 86.8447 171.892 84.5714 171.861 84.4071C171.829 84.2428 174.633 83.3451 173.09 82.1288C171.547 80.9125 168.506 80.1448 168.688 79.652C168.87 79.1592 171.464 79.3127 171.084 77.2152C170.704 75.1176 171.485 74.0491 168.688 73.5777C165.89 73.1064 162.703 71.9815 161.204 72.4443C159.706 72.9071 155.522 72.9214 155.522 72.9214Z" fill="#2E2E2D" stroke="#666766"/>
<path d="M153.747 78.9636C155.606 79.4816 157.507 79.8379 159.427 80.0284C162.679 80.1808 165.937 80.0088 169.155 79.5149" fill="#2E2E2D"/>
<path d="M153.747 78.9636C155.606 79.4816 157.507 79.8379 159.427 80.0284C162.679 80.1808 165.937 80.0088 169.155 79.5149" stroke="#666766"/>
<path d="M180.885 105.709C180.885 110.639 181.144 115.361 180.885 120.203C180.717 123.346 179.106 126.525 177.961 129.426C176.764 132.454 174.763 135.593 172.83 138.209C169.145 143.198 163.9 146.607 160.018 151.385C158.52 153.228 156.457 153.917 154.565 155.24C151.895 157.108 148.756 158.819 145.742 160.071C138.914 162.907 132.329 165 124.925 165C117.379 165 110.11 164.341 102.818 162.267C99.3283 161.275 95.5951 160.322 92.4586 158.51C90.069 157.129 88.1059 155.358 85.8415 153.825C77.998 148.516 70.6188 141.981 64.4536 134.794C59.697 129.248 54.4543 124.072 49.7324 118.544C45.9964 114.17 40.1189 111.272 35.2342 108.345C28.8928 104.544 22.9416 100.831 15.3829 100.439C10.9021 100.207 6.47194 100 2 100" stroke="#2E2E2D" stroke-width="3" stroke-linecap="round"/>
</svg>
