<svg width="235" height="122" viewBox="0 0 235 122" fill="none" xmlns="http://www.w3.org/2000/svg">
<path d="M65.8571 12.416C65.8571 15.76 68.4011 18.096 71.5371 18.096C73.8571 18.096 75.8571 16.944 76.7051 14.768H74.5131C73.9211 15.952 72.8651 16.512 71.5371 16.512C69.3291 16.512 67.7291 14.928 67.7291 12.416C67.7291 9.904 69.3291 8.336 71.5371 8.336C72.8651 8.336 73.9211 8.896 74.5131 10.08H76.7051C75.8571 7.904 73.8571 6.736 71.5371 6.736C68.4011 6.736 65.8571 9.088 65.8571 12.416ZM79.8401 18H81.6641V13.072C81.6641 11.456 82.5441 10.624 83.8881 10.624C85.2161 10.624 86.0961 11.456 86.0961 13.072V18H87.9041V12.8C87.9041 10.336 86.3681 9.04 84.4001 9.04C83.2641 9.04 82.2721 9.472 81.6641 10.208V6.16H79.8401V18ZM90.6228 13.552C90.6228 16.272 92.4628 18.144 94.7508 18.144C96.2228 18.144 97.2788 17.44 97.8388 16.688V18H99.6788V9.184H97.8388V10.464C97.2948 9.744 96.2708 9.04 94.7828 9.04C92.4628 9.04 90.6228 10.832 90.6228 13.552ZM97.8388 13.584C97.8388 15.488 96.5428 16.56 95.1668 16.56C93.8068 16.56 92.4948 15.456 92.4948 13.552C92.4948 11.648 93.8068 10.624 95.1668 10.624C96.5428 10.624 97.8388 11.696 97.8388 13.584ZM104.899 13.36C104.899 11.488 105.731 10.928 107.075 10.928H107.539V9.04C106.291 9.04 105.411 9.584 104.899 10.464V9.184H103.075V18H104.899V13.36ZM109.607 13.552C109.607 16.272 111.447 18.144 113.767 18.144C115.207 18.144 116.263 17.424 116.823 16.672V18.144C116.823 19.904 115.767 20.768 114.359 20.768C113.095 20.768 112.119 20.144 111.847 19.232H110.039C110.263 21.184 112.007 22.352 114.359 22.352C117.111 22.352 118.663 20.544 118.663 18.144V9.184H116.823V10.464C116.279 9.712 115.207 9.04 113.767 9.04C111.447 9.04 109.607 10.832 109.607 13.552ZM116.823 13.584C116.823 15.488 115.527 16.56 114.151 16.56C112.791 16.56 111.479 15.456 111.479 13.552C111.479 11.648 112.791 10.624 114.151 10.624C115.527 10.624 116.823 11.696 116.823 13.584ZM125.771 10.576C127.131 10.576 128.203 11.44 128.235 12.8H123.355C123.547 11.408 124.539 10.576 125.771 10.576ZM129.899 15.376H127.931C127.595 16.064 126.971 16.608 125.851 16.608C124.507 16.608 123.467 15.728 123.339 14.272H130.075C130.123 13.968 130.139 13.68 130.139 13.376C130.139 10.784 128.363 9.04 125.851 9.04C123.243 9.04 121.451 10.816 121.451 13.584C121.451 16.352 123.323 18.144 125.851 18.144C128.011 18.144 129.403 16.912 129.899 15.376ZM132.934 18H134.758V10.384L138.166 18H139.43L142.822 10.384V18H144.646V6.88H142.694L138.806 15.6L134.902 6.88H132.934V18ZM158.795 12.416C158.795 9.088 156.283 6.736 153.115 6.736C149.979 6.736 147.435 9.088 147.435 12.416C147.435 15.76 149.979 18.112 153.115 18.112C156.283 18.112 158.795 15.76 158.795 12.416ZM149.307 12.416C149.307 9.904 150.907 8.336 153.115 8.336C155.323 8.336 156.923 9.904 156.923 12.416C156.923 14.928 155.323 16.528 153.115 16.528C150.907 16.528 149.307 14.928 149.307 12.416ZM165.222 6.88H161.59V18H165.222C168.79 18 171.126 15.904 171.126 12.48C171.126 9.04 168.79 6.88 165.222 6.88ZM163.414 16.512V8.368H165.222C167.846 8.368 169.254 9.936 169.254 12.48C169.254 15.008 167.846 16.512 165.222 16.512H163.414Z" fill="#2E2E2D"/>
<path d="M12.6363 33.92V62H28.4363V56.72H19.4763V33.92H12.6363ZM42.5388 44.84C44.8188 44.84 46.7388 46.24 46.7388 48.68H38.1788C38.5788 46.2 40.2988 44.84 42.5388 44.84ZM53.2188 54.6H45.9388C45.3788 55.8 44.2988 56.76 42.3788 56.76C40.1788 56.76 38.3788 55.4 38.1388 52.48H53.6188C53.6988 51.8 53.7387 51.12 53.7387 50.48C53.7387 43.68 49.1388 39.36 42.6188 39.36C35.9788 39.36 31.3388 43.76 31.3388 50.84C31.3388 57.92 36.0588 62.32 42.6188 62.32C48.1788 62.32 52.1388 58.96 53.2188 54.6ZM59.4272 54.24C59.4272 60.04 62.6672 62 67.3072 62H70.7872V56.2H68.3472C66.8272 56.2 66.2672 55.64 66.2672 54.32V45.36H70.7472V39.68H66.2672V34.24H59.4272V39.68H56.7072V45.36H59.4272V54.24ZM79.6772 44.64L84.1572 33.92H77.1572L75.0772 44.64H79.6772ZM107.295 55.52C107.175 47.2 95.0953 49.72 95.0953 46.16C95.0953 45.08 95.9753 44.44 97.5753 44.44C99.4953 44.44 100.655 45.44 100.855 46.96H107.175C106.735 42.56 103.535 39.36 97.7753 39.36C91.9353 39.36 88.6953 42.48 88.6953 46.28C88.6953 54.48 100.855 51.88 100.855 55.48C100.855 56.48 99.9353 57.28 98.1753 57.28C96.2953 57.28 94.8953 56.24 94.7353 54.68H87.9753C88.2953 59 92.2953 62.32 98.2553 62.32C103.855 62.32 107.295 59.4 107.295 55.52ZM142.357 53.64C142.357 44.24 128.477 46.44 128.477 41.56C128.477 39.8 129.717 38.96 131.357 39C133.197 39.04 134.477 40.12 134.597 41.92H141.997C141.717 36.56 137.597 33.52 131.477 33.52C125.597 33.52 121.237 36.48 121.237 41.8C121.157 51.76 135.197 48.96 135.197 54.16C135.197 55.8 133.917 56.8 131.917 56.8C129.997 56.8 128.637 55.76 128.437 53.6H121.157C121.357 59.28 126.077 62.28 132.117 62.28C138.677 62.28 142.357 58.36 142.357 53.64ZM148.646 54.24C148.646 60.04 151.886 62 156.526 62H160.006V56.2H157.566C156.046 56.2 155.486 55.64 155.486 54.32V45.36H159.966V39.68H155.486V34.24H148.646V39.68H145.926V45.36H148.646V54.24ZM163.456 50.8C163.456 57.84 167.816 62.32 173.256 62.32C176.576 62.32 178.936 60.8 180.176 58.84V62H187.016V39.68H180.176V42.84C178.976 40.88 176.616 39.36 173.296 39.36C167.816 39.36 163.456 43.76 163.456 50.8ZM180.176 50.84C180.176 54.4 177.896 56.36 175.296 56.36C172.736 56.36 170.416 54.36 170.416 50.8C170.416 47.24 172.736 45.32 175.296 45.32C177.896 45.32 180.176 47.28 180.176 50.84ZM199.804 51.64C199.804 47.8 201.684 46.68 204.924 46.68H206.804V39.44C203.804 39.44 201.364 41.04 199.804 43.4V39.68H192.964V62H199.804V51.64ZM212.154 54.24C212.154 60.04 215.394 62 220.034 62H223.514V56.2H221.074C219.554 56.2 218.994 55.64 218.994 54.32V45.36H223.474V39.68H218.994V34.24H212.154V39.68H209.434V45.36H212.154V54.24Z" fill="#2E2E2D"/>
<path d="M2.62844 106H9.46844V94.64H18.0284V89.32H9.46844V83.4H20.9084V77.92H2.62844V106ZM32.3434 95.64C32.3434 91.8 34.2234 90.68 37.4634 90.68H39.3434V83.44C36.3434 83.44 33.9034 85.04 32.3434 87.4V83.68H25.5034V106H32.3434V95.64ZM65.4528 94.84C65.4528 87.76 60.4128 83.36 53.8528 83.36C47.3328 83.36 42.2528 87.76 42.2528 94.84C42.2528 101.92 47.2128 106.32 53.7728 106.32C60.3328 106.32 65.4528 101.92 65.4528 94.84ZM49.2128 94.84C49.2128 91.04 51.3728 89.28 53.8528 89.28C56.2528 89.28 58.4928 91.04 58.4928 94.84C58.4928 98.6 56.2128 100.4 53.7728 100.4C51.2928 100.4 49.2128 98.6 49.2128 94.84ZM100.842 106H107.642V92.96C107.642 86.96 104.082 83.44 98.5616 83.44C95.3216 83.44 92.5216 85.24 91.0416 87.6C89.5216 84.92 86.8016 83.44 83.4416 83.44C80.5216 83.44 78.2416 84.68 76.9216 86.48V83.68H70.0816V106H76.9216V93.88C76.9216 90.96 78.6016 89.36 81.2016 89.36C83.8016 89.36 85.4816 90.96 85.4816 93.88V106H92.2816V93.88C92.2816 90.96 93.9616 89.36 96.5616 89.36C99.1616 89.36 100.842 90.96 100.842 93.88V106ZM122.902 77.92V106H138.702V100.72H129.742V77.92H122.902ZM164.804 94.84C164.804 87.76 159.764 83.36 153.204 83.36C146.684 83.36 141.604 87.76 141.604 94.84C141.604 101.92 146.564 106.32 153.124 106.32C159.684 106.32 164.804 101.92 164.804 94.84ZM148.564 94.84C148.564 91.04 150.724 89.28 153.204 89.28C155.604 89.28 157.844 91.04 157.844 94.84C157.844 98.6 155.564 100.4 153.124 100.4C150.644 100.4 148.564 98.6 148.564 94.84ZM168.073 94.8C168.073 101.84 172.433 106.32 177.913 106.32C181.193 106.32 183.553 104.76 184.793 102.8V105.96C184.793 109.72 182.753 111.08 180.153 111.08C177.793 111.08 176.113 110 175.673 108.32H168.913C169.513 113.64 173.833 117 180.473 117C188.193 117 191.633 111.92 191.633 105.96V83.68H184.793V86.84C183.593 84.84 181.193 83.36 177.913 83.36C172.433 83.36 168.073 87.76 168.073 94.8ZM184.793 94.84C184.793 98.4 182.513 100.36 179.913 100.36C177.353 100.36 175.033 98.36 175.033 94.8C175.033 91.24 177.353 89.32 179.913 89.32C182.513 89.32 184.793 91.28 184.793 94.84ZM197.582 106H204.422V83.68H197.582V106ZM201.022 81.36C203.422 81.36 205.062 79.72 205.062 77.68C205.062 75.6 203.422 73.96 201.022 73.96C198.582 73.96 196.942 75.6 196.942 77.68C196.942 79.72 198.582 81.36 201.022 81.36ZM225.778 106H232.578V92.96C232.578 86.96 229.138 83.44 223.978 83.44C220.978 83.44 218.578 84.76 217.218 86.64V83.68H210.378V106H217.218V93.88C217.218 90.84 218.898 89.16 221.498 89.16C224.098 89.16 225.778 90.84 225.778 93.88V106Z" fill="#E6740C"/>
</svg>
