<svg width="235" height="122" viewBox="0 0 235 122" fill="none" xmlns="http://www.w3.org/2000/svg">
<path d="M26.5901 18H28.4141V6.88H26.5901V18ZM38.0649 18H39.8729V12.8C39.8729 10.336 38.3209 9.04 36.2569 9.04C35.2009 9.04 34.2249 9.472 33.6329 10.192V9.184H31.8089V18H33.6329V13.072C33.6329 11.456 34.5129 10.624 35.8569 10.624C37.1849 10.624 38.0649 11.456 38.0649 13.072V18ZM43.4875 15.552C43.4875 17.344 44.4635 18 46.0315 18H47.4715V16.48H46.3515C45.5835 16.48 45.3275 16.208 45.3275 15.552V10.672H47.4715V9.184H45.3275V6.992H43.4875V9.184H42.4475V10.672H43.4875V15.552ZM53.8646 10.576C55.2246 10.576 56.2966 11.44 56.3286 12.8H51.4486C51.6406 11.408 52.6326 10.576 53.8646 10.576ZM57.9926 15.376H56.0246C55.6886 16.064 55.0646 16.608 53.9446 16.608C52.6006 16.608 51.5606 15.728 51.4326 14.272H58.1686C58.2166 13.968 58.2326 13.68 58.2326 13.376C58.2326 10.784 56.4566 9.04 53.9446 9.04C51.3366 9.04 49.5446 10.816 49.5446 13.584C49.5446 16.352 51.4166 18.144 53.9446 18.144C56.1046 18.144 57.4966 16.912 57.9926 15.376ZM62.8516 13.36C62.8516 11.488 63.6836 10.928 65.0276 10.928H65.4916V9.04C64.2436 9.04 63.3636 9.584 62.8516 10.464V9.184H61.0276V18H62.8516V13.36ZM67.5603 13.552C67.5603 16.272 69.4003 18.144 71.6883 18.144C73.1603 18.144 74.2163 17.44 74.7763 16.688V18H76.6163V9.184H74.7763V10.464C74.2323 9.744 73.2083 9.04 71.7203 9.04C69.4003 9.04 67.5603 10.832 67.5603 13.552ZM74.7763 13.584C74.7763 15.488 73.4803 16.56 72.1043 16.56C70.7443 16.56 69.4323 15.456 69.4323 13.552C69.4323 11.648 70.7443 10.624 72.1043 10.624C73.4803 10.624 74.7763 11.696 74.7763 13.584ZM79.404 13.584C79.404 16.352 81.196 18.144 83.724 18.144C85.884 18.144 87.292 16.944 87.788 15.216H85.82C85.484 16.128 84.812 16.608 83.724 16.608C82.252 16.608 81.276 15.52 81.276 13.584C81.276 11.664 82.252 10.576 83.724 10.576C84.812 10.576 85.516 11.12 85.82 11.968H87.788C87.292 10.112 85.884 9.04 83.724 9.04C81.196 9.04 79.404 10.832 79.404 13.584ZM90.8938 15.552C90.8938 17.344 91.8698 18 93.4378 18H94.8778V16.48H93.7578C92.9898 16.48 92.7338 16.208 92.7338 15.552V10.672H94.8778V9.184H92.7338V6.992H90.8938V9.184H89.8538V10.672H90.8938V15.552ZM97.5589 18H99.3829V9.184H97.5589V18ZM98.4869 8.016C99.1269 8.016 99.6389 7.504 99.6389 6.848C99.6389 6.192 99.1269 5.68 98.4869 5.68C97.8309 5.68 97.3189 6.192 97.3189 6.848C97.3189 7.504 97.8309 8.016 98.4869 8.016ZM111.178 13.584C111.178 10.816 109.194 9.04 106.682 9.04C104.17 9.04 102.186 10.816 102.186 13.584C102.186 16.352 104.09 18.144 106.602 18.144C109.13 18.144 111.178 16.352 111.178 13.584ZM104.042 13.584C104.042 11.584 105.274 10.624 106.65 10.624C108.01 10.624 109.306 11.584 109.306 13.584C109.306 15.584 107.962 16.56 106.602 16.56C105.226 16.56 104.042 15.584 104.042 13.584ZM120.237 18H122.045V12.8C122.045 10.336 120.493 9.04 118.429 9.04C117.373 9.04 116.397 9.472 115.805 10.192V9.184H113.981V18H115.805V13.072C115.805 11.456 116.685 10.624 118.029 10.624C119.357 10.624 120.237 11.456 120.237 13.072V18ZM132.784 18.016L134.832 18L137.312 9.584L139.648 18H141.712L145.008 6.88H143.056L140.736 15.888L138.416 6.88H136.368L133.872 15.936L131.568 6.88H129.632L132.784 18.016ZM147.512 18H149.336V9.184H147.512V18ZM148.44 8.016C149.08 8.016 149.592 7.504 149.592 6.848C149.592 6.192 149.08 5.68 148.44 5.68C147.784 5.68 147.272 6.192 147.272 6.848C147.272 7.504 147.784 8.016 148.44 8.016ZM153.019 15.552C153.019 17.344 153.995 18 155.563 18H157.003V16.48H155.883C155.115 16.48 154.859 16.208 154.859 15.552V10.672H157.003V9.184H154.859V6.992H153.019V9.184H151.979V10.672H153.019V15.552ZM159.684 18H161.508V13.072C161.508 11.456 162.388 10.624 163.732 10.624C165.06 10.624 165.94 11.456 165.94 13.072V18H167.748V12.8C167.748 10.336 166.212 9.04 164.244 9.04C163.108 9.04 162.116 9.472 161.508 10.208V6.16H159.684V18ZM181.303 6.736C178.167 6.736 175.623 9.088 175.623 12.416C175.623 15.76 178.167 18.096 181.303 18.096C184.295 18.096 186.471 15.904 186.807 13.328V11.904H180.679V13.36H184.855C184.583 15.232 183.319 16.448 181.303 16.448C179.095 16.448 177.495 14.864 177.495 12.416C177.495 9.968 179.095 8.4 181.303 8.4C182.631 8.4 183.687 8.96 184.279 10.08H186.471C185.623 7.904 183.623 6.736 181.303 6.736ZM191.43 13.36C191.43 11.488 192.262 10.928 193.606 10.928H194.07V9.04C192.822 9.04 191.942 9.584 191.43 10.464V9.184H189.606V18H191.43V13.36ZM196.746 18H198.57V9.184H196.746V18ZM197.674 8.016C198.314 8.016 198.826 7.504 198.826 6.848C198.826 6.192 198.314 5.68 197.674 5.68C197.018 5.68 196.506 6.192 196.506 6.848C196.506 7.504 197.018 8.016 197.674 8.016ZM201.357 13.552C201.357 16.272 203.197 18.144 205.517 18.144C206.957 18.144 208.013 17.472 208.573 16.672V18H210.413V6.16H208.573V10.416C207.901 9.584 206.685 9.04 205.533 9.04C203.197 9.04 201.357 10.832 201.357 13.552ZM208.573 13.584C208.573 15.488 207.277 16.56 205.901 16.56C204.541 16.56 203.229 15.456 203.229 13.552C203.229 11.648 204.541 10.624 205.901 10.624C207.277 10.624 208.573 11.696 208.573 13.584Z" fill="#2E2E2D"/>
<path d="M34.7653 43.04C34.7653 45.24 33.5653 46.56 31.0053 46.56H26.7653V39.6H31.0053C33.5653 39.6 34.7653 40.96 34.7653 43.04ZM19.9253 33.92V62H26.7653V51.4H28.4053L34.2453 62H41.9653L35.4853 50.88C39.8053 49.6 41.7253 46.28 41.7253 42.76C41.7253 37.88 38.2853 33.92 31.4053 33.92H19.9253ZM56.8591 44.84C59.1391 44.84 61.0591 46.24 61.0591 48.68H52.4991C52.8991 46.2 54.6191 44.84 56.8591 44.84ZM67.5391 54.6H60.2591C59.6991 55.8 58.6191 56.76 56.6991 56.76C54.4991 56.76 52.6991 55.4 52.4591 52.48H67.9391C68.0191 51.8 68.0591 51.12 68.0591 50.48C68.0591 43.68 63.4591 39.36 56.9391 39.36C50.2991 39.36 45.6591 43.76 45.6591 50.84C45.6591 57.92 50.3791 62.32 56.9391 62.32C62.4991 62.32 66.4591 58.96 67.5391 54.6ZM71.3075 50.8C71.3075 57.84 75.6675 62.32 81.1075 62.32C84.4275 62.32 86.7875 60.8 88.0275 58.84V62H94.8675V39.68H88.0275V42.84C86.8275 40.88 84.4675 39.36 81.1475 39.36C75.6675 39.36 71.3075 43.76 71.3075 50.8ZM88.0275 50.84C88.0275 54.4 85.7475 56.36 83.1475 56.36C80.5875 56.36 78.2675 54.36 78.2675 50.8C78.2675 47.24 80.5875 45.32 83.1475 45.32C85.7475 45.32 88.0275 47.28 88.0275 50.84ZM100.816 62H107.656V32.4H100.816V62ZM112.093 39.4H119.533V62H126.373V39.4H133.813V33.92H112.093V39.4ZM138.246 62H145.086V39.68H138.246V62ZM141.686 37.36C144.086 37.36 145.726 35.72 145.726 33.68C145.726 31.6 144.086 29.96 141.686 29.96C139.246 29.96 137.606 31.6 137.606 33.68C137.606 35.72 139.246 37.36 141.686 37.36ZM181.803 62H188.603V48.96C188.603 42.96 185.043 39.44 179.523 39.44C176.283 39.44 173.483 41.24 172.003 43.6C170.483 40.92 167.763 39.44 164.403 39.44C161.483 39.44 159.203 40.68 157.883 42.48V39.68H151.043V62H157.883V49.88C157.883 46.96 159.563 45.36 162.163 45.36C164.763 45.36 166.443 46.96 166.443 49.88V62H173.243V49.88C173.243 46.96 174.923 45.36 177.523 45.36C180.123 45.36 181.803 46.96 181.803 49.88V62ZM204.226 44.84C206.506 44.84 208.426 46.24 208.426 48.68H199.866C200.266 46.2 201.986 44.84 204.226 44.84ZM214.906 54.6H207.626C207.066 55.8 205.986 56.76 204.066 56.76C201.866 56.76 200.066 55.4 199.826 52.48H215.306C215.386 51.8 215.426 51.12 215.426 50.48C215.426 43.68 210.826 39.36 204.306 39.36C197.666 39.36 193.026 43.76 193.026 50.84C193.026 57.92 197.746 62.32 204.306 62.32C209.866 62.32 213.826 58.96 214.906 54.6Z" fill="#2E2E2D"/>
<path d="M2.64797 106H9.48797V89.12L15.808 106H21.328L27.608 89.16V106H34.448V77.92H26.408L18.608 97.36L10.728 77.92H2.64797V106ZM62.2067 94.84C62.2067 87.76 57.1667 83.36 50.6067 83.36C44.0867 83.36 39.0067 87.76 39.0067 94.84C39.0067 101.92 43.9667 106.32 50.5267 106.32C57.0867 106.32 62.2067 101.92 62.2067 94.84ZM45.9667 94.84C45.9667 91.04 48.1267 89.28 50.6067 89.28C53.0067 89.28 55.2467 91.04 55.2467 94.84C55.2467 98.6 52.9667 100.4 50.5267 100.4C48.0467 100.4 45.9667 98.6 45.9667 94.84ZM82.2355 106H89.0355V92.96C89.0355 86.96 85.5955 83.44 80.4355 83.44C77.4355 83.44 75.0355 84.76 73.6755 86.64V83.68H66.8355V106H73.6755V93.88C73.6755 90.84 75.3555 89.16 77.9555 89.16C80.5555 89.16 82.2355 90.84 82.2355 93.88V106ZM94.7886 106H101.629V83.68H94.7886V106ZM98.2286 81.36C100.629 81.36 102.269 79.72 102.269 77.68C102.269 75.6 100.629 73.96 98.2286 73.96C95.7886 73.96 94.1486 75.6 94.1486 77.68C94.1486 79.72 95.7886 81.36 98.2286 81.36ZM108.665 98.24C108.665 104.04 111.905 106 116.545 106H120.025V100.2H117.585C116.065 100.2 115.505 99.64 115.505 98.32V89.36H119.985V83.68H115.505V78.24H108.665V83.68H105.945V89.36H108.665V98.24ZM146.675 94.84C146.675 87.76 141.635 83.36 135.075 83.36C128.555 83.36 123.475 87.76 123.475 94.84C123.475 101.92 128.435 106.32 134.995 106.32C141.555 106.32 146.675 101.92 146.675 94.84ZM130.435 94.84C130.435 91.04 132.595 89.28 135.075 89.28C137.475 89.28 139.715 91.04 139.715 94.84C139.715 98.6 137.435 100.4 134.995 100.4C132.515 100.4 130.435 98.6 130.435 94.84ZM158.144 95.64C158.144 91.8 160.024 90.68 163.264 90.68H165.144V83.44C162.144 83.44 159.704 85.04 158.144 87.4V83.68H151.304V106H158.144V95.64ZM169.414 106H176.254V83.68H169.414V106ZM172.854 81.36C175.254 81.36 176.894 79.72 176.894 77.68C176.894 75.6 175.254 73.96 172.854 73.96C170.414 73.96 168.774 75.6 168.774 77.68C168.774 79.72 170.414 81.36 172.854 81.36ZM197.61 106H204.41V92.96C204.41 86.96 200.97 83.44 195.81 83.44C192.81 83.44 190.41 84.76 189.05 86.64V83.68H182.21V106H189.05V93.88C189.05 90.84 190.73 89.16 193.33 89.16C195.93 89.16 197.61 90.84 197.61 93.88V106ZM208.804 94.8C208.804 101.84 213.164 106.32 218.644 106.32C221.924 106.32 224.284 104.76 225.524 102.8V105.96C225.524 109.72 223.484 111.08 220.884 111.08C218.524 111.08 216.844 110 216.404 108.32H209.644C210.244 113.64 214.564 117 221.204 117C228.924 117 232.364 111.92 232.364 105.96V83.68H225.524V86.84C224.324 84.84 221.924 83.36 218.644 83.36C213.164 83.36 208.804 87.76 208.804 94.8ZM225.524 94.84C225.524 98.4 223.244 100.36 220.644 100.36C218.084 100.36 215.764 98.36 215.764 94.8C215.764 91.24 218.084 89.32 220.644 89.32C223.244 89.32 225.524 91.28 225.524 94.84Z" fill="#E6740C"/>
</svg>
