<svg width="355" height="220" viewBox="0 0 355 220" fill="none" xmlns="http://www.w3.org/2000/svg">
<path d="M52.5861 219.641C58.3964 219.641 64.0327 218.522 69.3383 216.316C71.8881 215.255 74.3476 213.943 76.6483 212.414C78.9269 210.9 81.0697 209.162 83.0171 207.247C84.9643 205.332 86.7321 203.225 88.2714 200.985C89.8253 198.723 91.1599 196.305 92.2382 193.798C94.4815 188.582 95.6189 183.042 95.6189 177.331C95.6189 171.62 94.4815 166.079 92.2382 160.864C91.1599 158.357 89.8253 155.939 88.2714 153.677C86.7321 151.437 84.9643 149.33 83.0171 147.415C81.0698 145.5 78.927 143.761 76.6483 142.248C74.3477 140.719 71.8883 139.407 69.3383 138.346C64.0327 136.139 58.3964 135.02 52.5861 135.02C46.7757 135.02 41.1394 136.139 35.8338 138.346C33.2839 139.407 30.8244 140.719 28.5239 142.248C26.2451 143.761 24.1024 145.5 22.155 147.415C20.2078 149.33 18.44 151.437 16.9007 153.677C15.3468 155.939 14.0122 158.357 12.9339 160.864C10.6906 166.079 9.55322 171.62 9.55322 177.331C9.55322 183.042 10.6906 188.582 12.9339 193.798C14.0122 196.305 15.3468 198.723 16.9007 200.985C18.44 203.225 20.2078 205.332 22.155 207.247C24.1024 209.162 26.2452 210.9 28.5239 212.414C30.8245 213.943 33.284 215.255 35.8338 216.316C41.1395 218.522 46.7757 219.641 52.5861 219.641ZM52.5861 148.646C56.4588 148.646 60.2159 149.404 63.753 150.9C67.1693 152.345 70.2374 154.413 72.872 157.047C75.5066 159.682 77.5751 162.749 79.0201 166.165C80.5162 169.702 81.2748 173.459 81.2748 177.331C81.2748 181.203 80.5162 184.96 79.0201 188.496C77.5751 191.912 75.5066 194.98 72.872 197.614C70.2374 200.249 67.1693 202.317 63.753 203.762C60.2159 205.258 56.4588 206.016 52.5861 206.016C48.7133 206.016 44.9562 205.258 41.4191 203.762C38.0028 202.317 34.9348 200.249 32.3001 197.614C29.6655 194.98 27.597 191.912 26.152 188.496C24.6559 184.96 23.8973 181.203 23.8973 177.331C23.8973 173.459 24.6559 169.702 26.152 166.165C27.597 162.749 29.6655 159.682 32.3001 157.047C34.9348 154.413 38.0028 152.345 41.4191 150.9C44.9562 149.404 48.7133 148.646 52.5861 148.646Z" fill="#2E2E2D"/>
<path d="M310.784 219.641C316.594 219.641 322.23 218.522 327.536 216.316C330.086 215.255 332.545 213.943 334.846 212.414C337.124 210.9 339.267 209.162 341.215 207.247C343.162 205.332 344.93 203.225 346.469 200.985C348.023 198.723 349.357 196.305 350.436 193.798C352.679 188.582 353.816 183.042 353.816 177.331C353.816 171.62 352.679 166.079 350.436 160.864C349.357 158.357 348.023 155.939 346.469 153.677C344.93 151.437 343.162 149.33 341.215 147.415C339.267 145.5 337.124 143.761 334.846 142.248C332.545 140.719 330.086 139.407 327.536 138.346C322.23 136.139 316.594 135.02 310.784 135.02C304.973 135.02 299.337 136.139 294.031 138.346C291.481 139.407 289.022 140.719 286.721 142.248C284.443 143.761 282.3 145.5 280.353 147.415C278.405 149.33 276.638 151.437 275.098 153.677C273.544 155.939 272.21 158.357 271.131 160.864C268.888 166.079 267.751 171.62 267.751 177.331C267.751 183.042 268.888 188.582 271.131 193.798C272.21 196.305 273.544 198.723 275.098 200.985C276.638 203.225 278.405 205.332 280.353 207.247C282.3 209.162 284.443 210.9 286.721 212.414C289.022 213.943 291.481 215.255 294.031 216.316C299.337 218.522 304.973 219.641 310.784 219.641ZM310.784 148.646C314.656 148.646 318.413 149.404 321.951 150.9C325.367 152.345 328.435 154.413 331.07 157.047C333.704 159.682 335.773 162.749 337.218 166.165C338.714 169.702 339.472 173.459 339.472 177.331C339.472 181.203 338.714 184.96 337.218 188.496C335.773 191.912 333.704 194.98 331.07 197.614C328.435 200.249 325.367 202.317 321.951 203.762C318.413 205.258 314.656 206.016 310.784 206.016C306.911 206.016 303.154 205.258 299.617 203.762C296.2 202.317 293.132 200.249 290.498 197.614C287.863 194.98 285.794 191.912 284.349 188.496C282.853 184.96 282.095 181.203 282.095 177.331C282.095 173.459 282.853 169.702 284.349 166.165C285.794 162.749 287.863 159.682 290.498 157.047C293.132 154.413 296.2 152.345 299.617 150.9C303.154 149.404 306.911 148.646 310.784 148.646Z" fill="#2E2E2D"/>
<path d="M287.68 130.445C287.68 130.445 296.223 126.081 303.842 125.804C311.461 125.526 320.384 125.069 324.632 127.565C328.881 130.061 330.623 129.453 329.588 132.115C328.554 134.777 328.424 137.464 324.632 137.096C320.841 136.728 309.418 135.341 306.697 135.573C303.976 135.806 286.447 141.368 280.459 148.737C274.471 156.106 272.613 160.987 270.643 166.42C268.672 171.853 267.516 166.42 267.516 166.42L287.68 130.445Z" fill="#2E2E2D"/>
<path d="M22.2212 130.053C22.2212 130.053 13.388 132.325 9.70795 136.78C5.06279 142.271 1.99262 148.918 0.823818 156.014C-0.556107 164.536 -0.318703 164.045 2.42609 162.98C5.17087 161.914 8.69596 157.326 11.1926 152.982C12.9061 150.199 15.2576 147.864 18.0528 146.17C18.0528 146.17 19.8824 150.322 24.4439 149.311C26.1083 149.007 27.5888 148.067 28.5712 146.689C29.5536 145.312 29.9607 143.606 29.7061 141.933C29.3475 139.529 35.5995 138.174 35.5995 138.174C35.5995 138.174 28.3893 135.344 26.8789 134.239C25.3684 133.134 22.2212 130.053 22.2212 130.053Z" fill="#2E2E2D"/>
<path d="M117.979 171.228C117.979 171.228 59.106 197.423 52.8719 197.554C46.6379 197.685 42.2994 199.381 36.457 191.088C30.6145 182.796 27.0077 173.816 32.0189 168.427C37.0301 163.038 44.4855 159.335 49.7341 159.789C54.9827 160.242 74.7714 156.451 74.7714 156.451L117.979 171.228Z" fill="#2E2E2D"/>
<path d="M217.725 10.3639L232.992 6.85647L243.888 0C243.888 0 264.813 3.03131 265.261 6.85647C265.708 10.6816 266.676 11.7516 265.261 18.8827C263.846 26.0139 262.615 28.6565 260.18 29.6102C257.745 30.564 245.468 26.1523 243.884 27.2437C242.3 28.3352 242.623 27.8597 243.221 29.6102C243.819 31.3608 258.713 45.215 276.07 68.716C293.426 92.2171 298.922 98.1671 299.896 103.118C300.87 108.069 276.775 152.272 272.986 156.964C269.197 161.657 262.859 180.491 250.562 185.431C238.265 190.371 227.019 194.252 198.859 191.362C170.699 188.472 95.9388 164.684 78.3526 158.035C60.7665 151.386 34.776 139.935 24.9336 132.17C15.0912 124.405 18.9004 108.986 19.2504 99.1818C19.6004 89.3773 30.7215 84.6442 37.5394 82.3766C44.3573 80.1091 68.341 82.8069 78.349 87.3599C88.3571 91.913 171.293 103.121 171.293 103.121C171.293 103.121 165.511 121.645 167.22 128.651C168.929 135.656 174.648 141.827 186.943 144.492C199.239 147.157 225.427 151.256 232.989 148.304C240.55 145.351 249.386 124.703 250.561 112.598C251.735 100.493 237.307 60.3686 232.989 51.2468C228.67 42.1249 219.382 28.8429 217.722 20.9409C216.062 13.0388 217.725 10.3639 217.725 10.3639Z" fill="#2E2E2D"/>
<path d="M171.939 102.965C171.939 102.965 179.719 107.28 181.649 94.7995C183.579 82.3186 183.921 68.4142 168.313 66.8028C152.706 65.1914 131.253 70.017 123.6 66.8028C115.947 63.5886 95.2649 56.289 83.1145 56.583C70.9641 56.877 55.8302 55.0462 50.068 59.8251C44.3059 64.6041 43.4819 73.2821 45.2189 76.0731C46.9561 78.8642 84.5554 89.1249 84.5554 89.1249L123.6 96.2775L171.939 102.965Z" fill="#2E2E2D"/>
</svg>
