<svg width="270" height="122" viewBox="0 0 270 122" fill="none" xmlns="http://www.w3.org/2000/svg">
<path d="M58.177 6.864H52.033V18H58.177V16.512H53.857V13.104H57.697V11.616H53.857V8.352H58.177V6.864ZM60.8156 13.552C60.8156 16.272 62.6556 18.144 64.9436 18.144C66.4156 18.144 67.4716 17.44 68.0316 16.688V18H69.8716V9.184H68.0316V10.464C67.4876 9.744 66.4636 9.04 64.9756 9.04C62.6556 9.04 60.8156 10.832 60.8156 13.552ZM68.0316 13.584C68.0316 15.488 66.7356 16.56 65.3596 16.56C63.9996 16.56 62.6876 15.456 62.6876 13.552C62.6876 11.648 63.9996 10.624 65.3596 10.624C66.7356 10.624 68.0316 11.696 68.0316 13.584ZM79.8434 15.536C79.7474 12.352 74.7714 13.344 74.7714 11.568C74.7714 10.976 75.2834 10.576 76.2594 10.576C77.2514 10.576 77.8434 11.104 77.9074 11.872H79.7314C79.6354 10.112 78.3234 9.04 76.3234 9.04C74.2434 9.04 72.9314 10.176 72.9314 11.584C72.9314 14.816 78.0514 13.824 78.0514 15.552C78.0514 16.16 77.4914 16.608 76.4354 16.608C75.4274 16.608 74.7394 16.016 74.6754 15.296H72.7874C72.8674 16.896 74.3554 18.144 76.4674 18.144C78.5474 18.144 79.8434 17.024 79.8434 15.536ZM86.2863 15.904L83.8063 9.184H81.7743L85.2463 17.856L83.4543 22.144H85.3423L90.7503 9.184H88.8623L86.2863 15.904ZM104.427 6.864H98.283V18H104.427V16.512H100.107V13.104H103.947V11.616H100.107V8.352H104.427V6.864ZM112.026 16.128L108.73 6.88H106.778L110.97 18H113.082L117.258 6.88H115.338L112.026 16.128ZM132.251 6.864V15.152L126.763 6.864H124.939V18H126.763V9.696L132.251 18H134.075V6.864H132.251ZM136.863 13.552C136.863 16.272 138.703 18.144 140.991 18.144C142.463 18.144 143.519 17.44 144.079 16.688V18H145.919V9.184H144.079V10.464C143.535 9.744 142.511 9.04 141.023 9.04C138.703 9.04 136.863 10.832 136.863 13.552ZM144.079 13.584C144.079 15.488 142.783 16.56 141.407 16.56C140.047 16.56 138.735 15.456 138.735 13.552C138.735 11.648 140.047 10.624 141.407 10.624C142.783 10.624 144.079 11.696 144.079 13.584ZM148.274 9.184L151.618 18H153.794L157.154 9.184H155.218L152.722 16.368L150.226 9.184H148.274ZM159.533 18H161.357V9.184H159.533V18ZM160.461 8.016C161.101 8.016 161.613 7.504 161.613 6.848C161.613 6.192 161.101 5.68 160.461 5.68C159.805 5.68 159.293 6.192 159.293 6.848C159.293 7.504 159.805 8.016 160.461 8.016ZM164.144 13.552C164.144 16.272 165.984 18.144 168.304 18.144C169.744 18.144 170.8 17.424 171.36 16.672V18.144C171.36 19.904 170.304 20.768 168.896 20.768C167.632 20.768 166.656 20.144 166.384 19.232H164.576C164.8 21.184 166.544 22.352 168.896 22.352C171.648 22.352 173.2 20.544 173.2 18.144V9.184H171.36V10.464C170.816 9.712 169.744 9.04 168.304 9.04C165.984 9.04 164.144 10.832 164.144 13.552ZM171.36 13.584C171.36 15.488 170.064 16.56 168.688 16.56C167.328 16.56 166.016 15.456 166.016 13.552C166.016 11.648 167.328 10.624 168.688 10.624C170.064 10.624 171.36 11.696 171.36 13.584ZM175.988 13.552C175.988 16.272 177.828 18.144 180.116 18.144C181.588 18.144 182.644 17.44 183.204 16.688V18H185.044V9.184H183.204V10.464C182.66 9.744 181.636 9.04 180.148 9.04C177.828 9.04 175.988 10.832 175.988 13.552ZM183.204 13.584C183.204 15.488 181.908 16.56 180.532 16.56C179.172 16.56 177.86 15.456 177.86 13.552C177.86 11.648 179.172 10.624 180.532 10.624C181.908 10.624 183.204 11.696 183.204 13.584ZM188.727 15.552C188.727 17.344 189.703 18 191.271 18H192.711V16.48H191.591C190.823 16.48 190.567 16.208 190.567 15.552V10.672H192.711V9.184H190.567V6.992H188.727V9.184H187.687V10.672H188.727V15.552ZM195.392 18H197.216V9.184H195.392V18ZM196.32 8.016C196.96 8.016 197.472 7.504 197.472 6.848C197.472 6.192 196.96 5.68 196.32 5.68C195.664 5.68 195.152 6.192 195.152 6.848C195.152 7.504 195.664 8.016 196.32 8.016ZM209.011 13.584C209.011 10.816 207.027 9.04 204.515 9.04C202.003 9.04 200.019 10.816 200.019 13.584C200.019 16.352 201.923 18.144 204.435 18.144C206.963 18.144 209.011 16.352 209.011 13.584ZM201.875 13.584C201.875 11.584 203.107 10.624 204.483 10.624C205.843 10.624 207.139 11.584 207.139 13.584C207.139 15.584 205.795 16.56 204.435 16.56C203.059 16.56 201.875 15.584 201.875 13.584ZM218.07 18H219.878V12.8C219.878 10.336 218.326 9.04 216.262 9.04C215.206 9.04 214.23 9.472 213.638 10.192V9.184H211.814V18H213.638V13.072C213.638 11.456 214.518 10.624 215.862 10.624C217.19 10.624 218.07 11.456 218.07 13.072V18Z" fill="#2E2E2D"/>
<path d="M1.74662 39.4H9.18662V62H16.0266V39.4H23.4666V33.92H1.74662V39.4ZM34.7394 51.64C34.7394 47.8 36.6194 46.68 39.8594 46.68H41.7394V39.44C38.7394 39.44 36.2994 41.04 34.7394 43.4V39.68H27.8994V62H34.7394V51.64ZM44.6488 50.8C44.6488 57.84 49.0088 62.32 54.4488 62.32C57.7688 62.32 60.1288 60.8 61.3688 58.84V62H68.2088V39.68H61.3688V42.84C60.1688 40.88 57.8088 39.36 54.4888 39.36C49.0088 39.36 44.6488 43.76 44.6488 50.8ZM61.3688 50.84C61.3688 54.4 59.0888 56.36 56.4888 56.36C53.9288 56.36 51.6088 54.36 51.6088 50.8C51.6088 47.24 53.9288 45.32 56.4888 45.32C59.0888 45.32 61.3688 47.28 61.3688 50.84ZM72.0372 39.68L79.9572 62H88.3972L96.3172 39.68H89.0372L84.1972 55.6L79.3572 39.68H72.0372ZM110.036 44.84C112.316 44.84 114.236 46.24 114.236 48.68H105.676C106.076 46.2 107.796 44.84 110.036 44.84ZM120.716 54.6H113.436C112.876 55.8 111.796 56.76 109.876 56.76C107.676 56.76 105.876 55.4 105.636 52.48H121.116C121.196 51.8 121.236 51.12 121.236 50.48C121.236 43.68 116.636 39.36 110.116 39.36C103.476 39.36 98.8363 43.76 98.8363 50.84C98.8363 57.92 103.556 62.32 110.116 62.32C115.676 62.32 119.636 58.96 120.716 54.6ZM125.845 62H132.685V32.4H125.845V62ZM162.958 43.04C162.958 45.24 161.758 46.56 159.198 46.56H154.958V39.6H159.198C161.758 39.6 162.958 40.96 162.958 43.04ZM148.118 33.92V62H154.958V51.4H156.598L162.438 62H170.158L163.678 50.88C167.998 49.6 169.918 46.28 169.918 42.76C169.918 37.88 166.478 33.92 159.598 33.92H148.118ZM197.052 50.84C197.052 43.76 192.012 39.36 185.452 39.36C178.932 39.36 173.852 43.76 173.852 50.84C173.852 57.92 178.812 62.32 185.372 62.32C191.932 62.32 197.052 57.92 197.052 50.84ZM180.812 50.84C180.812 47.04 182.972 45.28 185.452 45.28C187.852 45.28 190.092 47.04 190.092 50.84C190.092 54.6 187.812 56.4 185.372 56.4C182.892 56.4 180.812 54.6 180.812 50.84ZM223.721 39.68H216.881V51.8C216.881 54.84 215.201 56.52 212.561 56.52C210.001 56.52 208.281 54.84 208.281 51.8V39.68H201.481V52.72C201.481 58.68 204.961 62.24 210.121 62.24C213.121 62.24 215.521 60.88 216.881 58.96V62H223.721V39.68ZM230.714 54.24C230.714 60.04 233.954 62 238.594 62H242.074V56.2H239.634C238.114 56.2 237.554 55.64 237.554 54.32V45.36H242.034V39.68H237.554V34.24H230.714V39.68H227.994V45.36H230.714V54.24ZM256.724 44.84C259.004 44.84 260.924 46.24 260.924 48.68H252.364C252.764 46.2 254.484 44.84 256.724 44.84ZM267.404 54.6H260.124C259.564 55.8 258.484 56.76 256.564 56.76C254.364 56.76 252.564 55.4 252.324 52.48H267.804C267.884 51.8 267.924 51.12 267.924 50.48C267.924 43.68 263.324 39.36 256.804 39.36C250.164 39.36 245.524 43.76 245.524 50.84C245.524 57.92 250.244 62.32 256.804 62.32C262.364 62.32 266.324 58.96 267.404 54.6Z" fill="#2E2E2D"/>
<path d="M7.9424 106H14.7824V94.64H23.3424V89.32H14.7824V83.4H26.2224V77.92H7.9424V106ZM52.6574 94.84C52.6574 87.76 47.6174 83.36 41.0574 83.36C34.5374 83.36 29.4574 87.76 29.4574 94.84C29.4574 101.92 34.4174 106.32 40.9774 106.32C47.5374 106.32 52.6574 101.92 52.6574 94.84ZM36.4174 94.84C36.4174 91.04 38.5774 89.28 41.0574 89.28C43.4574 89.28 45.6974 91.04 45.6974 94.84C45.6974 98.6 43.4174 100.4 40.9774 100.4C38.4974 100.4 36.4174 98.6 36.4174 94.84ZM64.1262 95.64C64.1262 91.8 66.0062 90.68 69.2462 90.68H71.1262V83.44C68.1262 83.44 65.6862 85.04 64.1262 87.4V83.68H57.2862V106H64.1262V95.64ZM102.072 77.92H84.8721V106H102.072V100.52H91.7121V94.36H100.872V89.08H91.7121V83.4H102.072V77.92ZM107.513 106H114.353V76.4H107.513V106ZM130.15 88.84C132.43 88.84 134.35 90.24 134.35 92.68H125.79C126.19 90.2 127.91 88.84 130.15 88.84ZM140.83 98.6H133.55C132.99 99.8 131.91 100.76 129.99 100.76C127.79 100.76 125.99 99.4 125.75 96.48H141.23C141.31 95.8 141.35 95.12 141.35 94.48C141.35 87.68 136.75 83.36 130.23 83.36C123.59 83.36 118.95 87.76 118.95 94.84C118.95 101.92 123.67 106.32 130.23 106.32C135.79 106.32 139.75 102.96 140.83 98.6ZM144.598 94.84C144.598 101.92 149.238 106.32 155.798 106.32C161.398 106.32 165.358 103.08 166.518 97.92H159.238C158.638 99.56 157.558 100.48 155.678 100.48C153.238 100.48 151.558 98.56 151.558 94.84C151.558 91.12 153.238 89.2 155.678 89.2C157.558 89.2 158.678 90.2 159.238 91.76H166.518C165.358 86.44 161.398 83.36 155.798 83.36C149.238 83.36 144.598 87.8 144.598 94.84ZM172.257 98.24C172.257 104.04 175.497 106 180.137 106H183.617V100.2H181.177C179.657 100.2 179.097 99.64 179.097 98.32V89.36H183.577V83.68H179.097V78.24H172.257V83.68H169.537V89.36H172.257V98.24ZM195.267 95.64C195.267 91.8 197.147 90.68 200.387 90.68H202.267V83.44C199.267 83.44 196.827 85.04 195.267 87.4V83.68H188.427V106H195.267V95.64ZM206.536 106H213.376V83.68H206.536V106ZM209.976 81.36C212.376 81.36 214.016 79.72 214.016 77.68C214.016 75.6 212.376 73.96 209.976 73.96C207.536 73.96 205.896 75.6 205.896 77.68C205.896 79.72 207.536 81.36 209.976 81.36ZM217.973 94.84C217.973 101.92 222.613 106.32 229.173 106.32C234.773 106.32 238.733 103.08 239.893 97.92H232.613C232.013 99.56 230.933 100.48 229.053 100.48C226.613 100.48 224.933 98.56 224.933 94.84C224.933 91.12 226.613 89.2 229.053 89.2C230.933 89.2 232.053 90.2 232.613 91.76H239.893C238.733 86.44 234.773 83.36 229.173 83.36C222.613 83.36 217.973 87.8 217.973 94.84ZM262.672 99.52C262.552 91.2 250.472 93.72 250.472 90.16C250.472 89.08 251.352 88.44 252.952 88.44C254.872 88.44 256.032 89.44 256.232 90.96H262.552C262.112 86.56 258.912 83.36 253.152 83.36C247.312 83.36 244.072 86.48 244.072 90.28C244.072 98.48 256.232 95.88 256.232 99.48C256.232 100.48 255.312 101.28 253.552 101.28C251.672 101.28 250.272 100.24 250.112 98.68H243.352C243.672 103 247.672 106.32 253.632 106.32C259.232 106.32 262.672 103.4 262.672 99.52Z" fill="#E6740C"/>
</svg>
